<svg version="1.1" id="Layer_1" xmlns="http://www.w3.org/2000/svg" xmlns:xlink="http://www.w3.org/1999/xlink" x="0px" y="0px"
	 width="100%" viewBox="0 0 83 80" enable-background="new 0 0 83 80" xml:space="preserve">
<path fill="#22AD02" opacity="1.000000" stroke="none" 
	d="
M1.000000,70.000000 
	C1.000000,53.979103 1.000000,37.958210 1.459038,21.545986 
	C6.615191,21.424995 11.312305,21.695332 16.056667,22.190643 
	C16.231249,22.713095 16.443651,22.925520 16.794868,23.415224 
	C16.817318,24.507832 16.786020,25.238111 16.552891,26.278786 
	C16.212145,28.334543 16.073227,30.079908 15.552938,31.898586 
	C13.751077,32.279507 12.330586,32.587109 10.710642,32.930916 
	C10.511186,32.967121 10.111464,33.034912 9.830799,33.341743 
	C9.656078,42.758732 9.762023,51.868893 9.946081,61.254539 
	C10.075070,61.714016 10.125947,61.898010 10.153860,62.331238 
	C10.411719,62.734383 10.692540,62.888298 10.986369,63.020660 
	C10.999377,62.999107 10.956140,63.025002 10.982764,63.348331 
	C11.636566,64.460640 12.263743,65.249619 13.041552,66.345230 
	C14.162479,67.086967 15.132775,67.522072 16.221584,68.126831 
	C16.594170,68.418533 16.806696,68.591583 17.284132,69.104858 
	C18.221766,69.580536 18.852499,69.928169 19.484182,69.929909 
	C34.810040,69.972038 50.136330,70.020897 65.461288,69.904213 
	C66.653526,69.895134 67.836578,68.679878 69.023125,67.554001 
	C69.021439,52.098610 69.080803,37.113869 68.936897,22.131083 
	C68.920471,20.420597 67.765411,18.721048 67.053886,16.765806 
	C66.915359,16.347380 66.861267,16.179575 66.835037,15.711157 
	C66.223480,14.651524 65.584061,13.892507 64.879211,12.744879 
	C63.021332,11.568613 61.254150,10.172343 59.432137,10.096687 
	C50.671333,9.732911 41.895851,9.692058 33.125118,9.658792 
	C32.458611,9.656263 31.788492,10.605370 31.082951,11.474937 
	C30.960476,12.562901 30.875103,13.288052 30.697241,14.121719 
	C30.487240,14.519427 30.546677,14.774232 30.811806,15.462685 
	C30.834789,24.293142 30.829031,32.655567 30.648170,41.236088 
	C30.601910,42.297405 30.730753,43.140621 30.964306,44.204742 
	C31.206575,44.737144 31.427002,44.970314 31.772022,45.442924 
	C31.915783,46.170471 32.017811,46.580238 31.967728,46.951870 
	C31.890230,46.918457 31.964846,46.923180 32.289803,46.944153 
	C32.701584,46.916710 32.863022,46.873016 33.477745,46.906677 
	C37.615185,46.932156 41.299339,46.880276 45.383915,46.762497 
	C45.857159,42.079849 45.929981,37.463104 45.855110,32.495930 
	C44.689102,31.765442 43.619884,30.961880 42.661114,31.077127 
	C38.002148,31.637144 36.371899,29.564369 36.980091,25.160437 
	C37.113586,24.193808 37.031139,23.197357 37.368774,22.141335 
	C38.124172,22.103291 38.558933,22.138554 39.289726,22.366634 
	C41.389729,22.428480 43.193695,22.297506 45.442329,22.096199 
	C47.882103,22.014120 49.971664,21.630743 51.842888,22.106358 
	C53.383694,22.497990 54.665657,23.907999 56.141708,25.086689 
	C56.379173,25.581345 56.585110,25.813576 56.920044,26.212965 
	C57.001202,26.422541 57.078411,26.865343 57.039886,27.341475 
	C56.929482,37.180996 56.857597,46.544384 56.392967,56.013924 
	C47.413620,56.412384 38.828892,56.808418 30.239815,56.963402 
	C23.651358,57.082291 22.013260,55.351795 22.004599,48.778107 
	C21.983618,32.852097 21.999170,16.926039 22.000000,1.000000 
	C36.687561,1.000000 51.375122,1.000000 66.735435,1.256311 
	C68.596420,2.030640 69.784660,2.548658 71.109314,3.382012 
	C73.515884,7.761281 75.786018,11.825214 78.040268,16.364347 
	C78.014191,36.558334 78.003990,56.277119 77.985420,76.337997 
	C77.993431,77.136009 78.009811,77.591927 78.015305,78.022461 
	C78.004402,77.997086 78.054024,78.021378 77.685974,78.002174 
	C75.892563,78.286102 74.467201,78.589233 72.969955,78.643738 
	C72.243759,78.524063 71.589455,78.653008 70.471893,78.818085 
	C66.521591,78.891350 63.034565,78.930733 59.547489,78.965248 
	C45.107708,79.108170 30.667917,79.249619 15.900577,79.392578 
	C14.708795,79.316444 13.844566,79.239365 12.767969,79.034073 
	C12.248610,78.752968 11.925776,78.703522 11.390221,78.521729 
	C10.795206,78.262291 10.397066,78.238640 9.690205,78.066154 
	C7.592312,76.403679 5.803141,74.890030 3.742689,73.173927 
	C2.647605,71.980980 1.823802,70.990486 1.000000,70.000000 
z"/>
<path fill="#FDFFFD" opacity="1.000000" stroke="none" 
	d="
M78.056152,15.889149 
	C75.786018,11.825214 73.515884,7.761281 71.118767,3.037658 
	C70.994530,1.918645 70.997269,1.459323 71.000000,1.000000 
	C75.312225,1.000000 79.624458,1.000000 83.968338,1.000000 
	C83.968338,27.666655 83.968338,54.333321 83.961853,81.000000 
	C81.633400,81.000000 79.311432,81.000000 76.511200,80.796440 
	C76.032928,80.592880 76.044571,80.184601 76.319778,80.051384 
	C77.081329,79.285904 77.567673,78.653641 78.054016,78.021378 
	C78.054024,78.021378 78.004402,77.997086 78.320312,77.916496 
	C78.698425,77.221718 78.760635,76.607529 78.933105,75.595551 
	C79.142807,73.828438 79.242249,72.459106 79.553490,70.841606 
	C79.620415,69.366211 79.475540,68.138992 79.290916,66.450394 
	C79.248207,51.951584 79.305954,37.913631 79.188797,23.877140 
	C79.166542,21.211510 78.451530,18.551664 78.056152,15.889149 
z"/>
<path fill="#FEFFFE" opacity="1.000000" stroke="none" 
	d="
M16.009420,21.965668 
	C11.312305,21.695332 6.615191,21.424995 1.459038,21.077330 
	C1.000000,14.411451 1.000000,7.822903 1.000000,1.000000 
	C6.684732,1.000000 12.372658,1.000000 18.667702,1.210784 
	C19.538679,1.623585 19.802536,1.825602 20.181213,2.480718 
	C20.224022,7.956655 20.152010,12.979493 19.749619,18.075703 
	C18.601988,19.467140 17.784735,20.785206 16.729797,22.056137 
	C16.492109,22.009005 16.009420,21.965666 16.009420,21.965668 
z"/>
<path fill="#33A118" opacity="1.000000" stroke="none" 
	d="
M20.079998,18.002331 
	C20.152010,12.979493 20.224022,7.956655 20.344896,2.304914 
	C20.438324,1.309452 20.640404,1.084115 21.000000,1.000000 
	C21.000000,1.000000 21.500000,1.000000 21.750000,1.000000 
	C21.999170,16.926039 21.983618,32.852097 22.004599,48.778107 
	C22.013260,55.351795 23.651358,57.082291 30.239815,56.963402 
	C38.828892,56.808418 47.413620,56.412384 56.446507,56.353535 
	C56.917950,57.043068 56.943104,57.499146 57.009701,57.976215 
	C57.051144,57.997211 57.013103,58.081982 56.723148,58.043098 
	C55.901142,58.195961 55.369095,58.387699 54.470818,58.592911 
	C53.127384,58.598850 52.150177,58.591316 51.038734,58.421074 
	C50.543751,58.374954 50.182991,58.491543 49.365284,58.619015 
	C41.773544,58.617786 34.638165,58.658024 27.504152,58.577427 
	C21.531921,58.509953 20.383856,57.242062 20.355740,51.399040 
	C20.332632,46.596924 20.182711,41.795414 20.232468,36.544373 
	C20.277292,30.064184 20.178646,24.033258 20.079998,18.002331 
z"/>
<path fill="#D8FFC5" opacity="1.000000" stroke="none" 
	d="
M76.044571,80.184601 
	C76.044571,80.184601 76.032928,80.592880 76.016464,80.796440 
	C56.645771,81.000000 37.291542,81.000000 17.460266,80.779800 
	C16.983217,80.559601 16.964617,80.119278 17.432831,80.066635 
	C37.282219,80.070869 56.663395,80.127731 76.044571,80.184601 
z"/>
<path fill="#FCFEFB" opacity="1.000000" stroke="none" 
	d="
M4.013969,73.376389 
	C5.803141,74.890030 7.592312,76.403679 9.921057,78.242249 
	C10.836119,78.630615 11.211608,78.694061 11.587096,78.757507 
	C11.925776,78.703522 12.248610,78.752968 12.768127,79.340393 
	C12.987102,80.183289 12.993550,80.591644 13.000000,81.000000 
	C9.121194,81.000000 5.242387,81.000000 1.000000,81.000000 
	C1.000000,79.681976 1.000000,78.340950 1.336946,76.483994 
	C2.453918,75.104172 3.233943,74.240280 4.013969,73.376389 
z"/>
<path fill="#F5FEEF" opacity="1.000000" stroke="none" 
	d="
M3.742689,73.173927 
	C3.233943,74.240280 2.453918,75.104172 1.336946,75.984032 
	C1.000000,74.285645 1.000000,72.571281 1.000000,70.428467 
	C1.823802,70.990486 2.647605,71.980980 3.742689,73.173927 
z"/>
<path fill="#E7FFE3" opacity="1.000000" stroke="none" 
	d="
M13.400095,81.000000 
	C12.993550,80.591644 12.987102,80.183289 12.980494,79.468613 
	C13.844566,79.239365 14.708795,79.316444 16.056318,79.603439 
	C16.681282,79.915329 16.822948,80.017303 16.964617,80.119278 
	C16.964617,80.119278 16.983217,80.559601 16.991608,80.779800 
	C15.933396,81.000000 14.866794,81.000000 13.400095,81.000000 
z"/>
<path fill="#EFFEEF" opacity="1.000000" stroke="none" 
	d="
M70.599937,1.000000 
	C70.997269,1.459323 70.994530,1.918645 70.982346,2.722322 
	C69.784660,2.548658 68.596420,2.030640 67.204094,1.256311 
	C68.066628,1.000000 69.133247,1.000000 70.599937,1.000000 
z"/>
<path fill="#F0FFE5" opacity="1.000000" stroke="none" 
	d="
M20.666668,1.000000 
	C20.640404,1.084115 20.438324,1.309452 20.230076,1.851815 
	C19.802536,1.825602 19.538679,1.623585 19.137411,1.210784 
	C19.444445,1.000000 19.888889,1.000000 20.666668,1.000000 
z"/>
<path fill="#FDFEFD" opacity="1.000000" stroke="none" 
	d="
M51.172966,58.583786 
	C52.150177,58.591316 53.127384,58.598850 54.760334,58.753281 
	C55.948414,58.627445 56.480759,58.354713 57.013103,58.081982 
	C57.013103,58.081982 57.051144,57.997211 57.350689,57.876923 
	C57.840717,56.842701 58.031200,55.928768 58.435791,54.661316 
	C58.507538,47.200275 58.365181,40.092754 58.169609,32.658806 
	C58.156601,31.894840 58.196800,31.457304 58.428326,30.756607 
	C58.384209,29.337038 58.148762,28.180630 57.704346,26.985806 
	C57.495369,26.947390 57.078411,26.865343 57.078411,26.865343 
	C57.078411,26.865343 57.001202,26.422541 56.967297,25.944103 
	C56.643040,25.266005 56.352684,25.066343 56.062332,24.866684 
	C54.665657,23.907999 53.383694,22.497990 51.842888,22.106358 
	C49.971664,21.630743 47.882103,22.014120 45.018490,22.019073 
	C42.431213,22.066126 40.712452,22.119970 38.993690,22.173817 
	C38.558933,22.138554 38.124172,22.103291 37.039825,22.054531 
	C35.939129,22.055933 35.488022,22.070833 34.850857,21.859772 
	C34.129528,21.422174 33.594261,21.210541 33.039574,20.561831 
	C33.343227,17.405642 33.666298,14.686528 34.458080,11.975515 
	C40.953102,11.720057 46.979416,11.456498 53.417763,11.125778 
	C55.217239,11.106089 56.604671,11.153560 58.146385,11.373047 
	C58.531391,11.765380 58.804535,11.899029 59.433907,11.971220 
	C60.161808,12.054912 60.575893,12.113390 61.095306,12.481835 
	C63.069481,13.865126 64.938324,14.938449 66.807167,16.011772 
	C66.861267,16.179575 66.915359,16.347380 66.974869,17.074673 
	C66.997528,18.059227 67.014778,18.484289 67.000809,19.383659 
	C66.955299,35.870026 66.941010,51.882084 66.567734,68.091858 
	C63.722309,68.344818 61.236115,68.427597 58.749371,68.450745 
	C44.825546,68.580338 30.901587,68.695549 16.977674,68.815666 
	C16.806696,68.591583 16.594170,68.418533 16.399536,67.918610 
	C15.665673,67.005814 14.872374,66.470909 13.994243,65.612961 
	C12.924987,64.534950 11.940562,63.779976 10.956139,63.025002 
	C10.956140,63.025002 10.999377,62.999107 11.013929,62.798012 
	C11.028482,62.596920 11.059919,62.149345 11.102179,61.672630 
	C11.187723,52.150032 11.231008,43.104145 11.680098,34.044235 
	C13.726623,34.006176 15.367344,33.982147 17.233997,34.195362 
	C18.336287,35.286285 19.212641,36.139961 20.088997,36.993637 
	C20.182711,41.795414 20.332632,46.596924 20.355740,51.399040 
	C20.383856,57.242062 21.531921,58.509953 27.504152,58.577427 
	C34.638165,58.658024 41.773544,58.617786 49.705406,58.735291 
	C50.725975,58.755054 50.949471,58.669422 51.172966,58.583786 
z"/>
<path fill="#FDFEFC" opacity="1.000000" stroke="none" 
	d="
M44.983494,46.828400 
	C41.299339,46.880276 37.615185,46.932156 33.474522,46.449219 
	C32.877247,42.759487 32.736485,39.604576 32.394539,36.159149 
	C32.213757,34.934601 32.234154,34.000561 32.738853,33.057022 
	C34.190861,33.013321 35.158573,32.979126 36.566944,32.975353 
	C39.662983,33.073845 42.318363,33.141914 44.976463,33.643379 
	C44.980618,38.327316 44.982056,42.577858 44.983494,46.828400 
z"/>
<path fill="#3E9627" opacity="1.000000" stroke="none" 
	d="
M17.432831,80.066635 
	C16.822948,80.017303 16.681282,79.915329 16.383873,79.602486 
	C30.667917,79.249619 45.107708,79.108170 59.547489,78.965248 
	C63.034565,78.930733 66.521591,78.891350 70.820984,78.870987 
	C72.102829,78.889305 72.572334,78.890839 73.041832,78.892372 
	C74.467201,78.589233 75.892563,78.286102 77.685974,78.002174 
	C77.567673,78.653641 77.081329,79.285904 76.319778,80.051384 
	C56.663395,80.127731 37.282219,80.070869 17.432831,80.066635 
z"/>
<path fill="#359F1B" opacity="1.000000" stroke="none" 
	d="
M79.341690,71.089775 
	C79.242249,72.459106 79.142807,73.828438 78.725853,75.597061 
	C78.408333,75.996353 77.993797,75.995903 77.993797,75.995903 
	C78.003990,56.277119 78.014191,36.558334 78.040268,16.364349 
	C78.451530,18.551664 79.166542,21.211510 79.188797,23.877140 
	C79.305954,37.913631 79.248207,51.951584 79.168411,66.858116 
	C79.170990,68.848061 79.256340,69.968918 79.341690,71.089775 
z"/>
<path fill="#33A218" opacity="1.000000" stroke="none" 
	d="
M17.284132,69.104858 
	C30.901587,68.695549 44.825546,68.580338 58.749371,68.450745 
	C61.236115,68.427597 63.722309,68.344818 66.805908,68.133392 
	C67.403053,67.977219 67.883720,67.933174 68.168648,67.957657 
	C68.643684,67.996506 68.833794,68.010864 69.023903,68.025230 
	C67.836578,68.679878 66.653526,69.895134 65.461288,69.904213 
	C50.136330,70.020897 34.810040,69.972038 19.484182,69.929909 
	C18.852499,69.928169 18.221766,69.580536 17.284132,69.104858 
z"/>
<path fill="#3B9A2B" opacity="1.000000" stroke="none" 
	d="
M69.023125,67.554001 
	C68.833794,68.010864 68.643684,67.996506 68.208076,67.495453 
	C67.970612,52.349632 68.004059,37.690388 67.944984,23.031519 
	C67.939438,21.656260 67.350235,20.283354 67.032028,18.909353 
	C67.014778,18.484289 66.997528,18.059227 67.059296,17.325296 
	C67.765411,18.721048 68.920471,20.420597 68.936897,22.131083 
	C69.080803,37.113869 69.021439,52.098610 69.023125,67.554001 
z"/>
<path fill="#F0FFE5" opacity="1.000000" stroke="none" 
	d="
M20.232468,36.544373 
	C19.212641,36.139961 18.336287,35.286285 17.226635,33.847672 
	C16.978964,32.798164 16.964586,32.333591 16.964224,31.446815 
	C16.903734,29.339203 16.829227,27.653797 16.754723,25.968390 
	C16.786020,25.238111 16.817318,24.507832 16.897329,23.188591 
	C16.946043,22.599627 16.967484,22.103270 16.967484,22.103270 
	C17.784735,20.785206 18.601988,19.467140 19.749619,18.075703 
	C20.178646,24.033258 20.277292,30.064184 20.232468,36.544373 
z"/>
<path fill="#33A019" opacity="1.000000" stroke="none" 
	d="
M60.989979,12.171868 
	C60.575893,12.113390 60.161808,12.054912 59.334343,11.724050 
	C58.611343,11.368121 58.301727,11.284576 57.992107,11.201031 
	C56.604671,11.153560 55.217239,11.106089 52.955139,11.043715 
	C46.055618,11.075953 40.030762,11.123095 33.696983,11.102633 
	C32.967697,11.060794 32.547340,11.086557 31.875254,11.095408 
	C31.455700,11.089705 31.287876,11.100914 31.120052,11.112123 
	C31.788492,10.605370 32.458611,9.656263 33.125118,9.658792 
	C41.895851,9.692058 50.671333,9.732911 59.432137,10.096687 
	C61.254150,10.172343 63.021332,11.568613 64.528847,12.684097 
	C63.159267,12.731907 62.074623,12.451887 60.989979,12.171868 
z"/>
<path fill="#30A313" opacity="1.000000" stroke="none" 
	d="
M44.973743,33.209984 
	C42.318363,33.141914 39.662983,33.073845 36.392143,32.597458 
	C35.530094,28.821337 35.283504,25.453535 35.036919,22.085732 
	C35.488022,22.070833 35.939129,22.055933 36.719185,22.127836 
	C37.031139,23.197357 37.113586,24.193808 36.980091,25.160437 
	C36.371899,29.564369 38.002148,31.637144 42.661114,31.077127 
	C43.619884,30.961880 44.689102,31.765442 45.597694,32.586281 
	C45.316563,33.088032 45.145153,33.149006 44.973743,33.209984 
z"/>
<path fill="#5EAF4E" opacity="1.000000" stroke="none" 
	d="
M31.082951,11.474937 
	C31.287876,11.100914 31.455700,11.089705 31.847118,11.541780 
	C32.112370,15.012416 32.154022,18.019766 32.137157,21.476086 
	C32.137276,25.638880 32.195911,29.352701 32.254555,33.066525 
	C32.234154,34.000561 32.213757,34.934601 32.161949,36.527290 
	C31.997128,39.832344 31.863710,42.478745 31.730293,45.125145 
	C31.427002,44.970314 31.206575,44.737144 31.001501,43.834732 
	C30.897081,42.501881 30.860176,41.759937 30.823273,41.017990 
	C30.829031,32.655567 30.834789,24.293142 30.847794,15.217682 
	C30.855040,14.504645 30.789730,14.013202 30.789730,14.013202 
	C30.875103,13.288052 30.960476,12.562901 31.082951,11.474937 
z"/>
<path fill="#58A745" opacity="1.000000" stroke="none" 
	d="
M58.221684,55.014839 
	C58.031200,55.928768 57.840717,56.842701 57.309246,57.855927 
	C56.943104,57.499146 56.917950,57.043068 56.839256,56.247383 
	C56.857597,46.544384 56.929482,37.180996 57.039886,27.341475 
	C57.078411,26.865343 57.495369,26.947390 57.740036,27.385841 
	C58.068802,28.889450 58.152901,29.954611 58.237000,31.019770 
	C58.196800,31.457304 58.156601,31.894840 58.080978,33.121773 
	C58.104267,40.945728 58.162975,47.980282 58.221684,55.014839 
z"/>
<path fill="#EFFFE9" opacity="1.000000" stroke="none" 
	d="
M44.976463,33.643379 
	C45.145153,33.149006 45.316563,33.088032 45.745388,32.936707 
	C45.929981,37.463104 45.857159,42.079849 45.383915,46.762497 
	C44.982056,42.577858 44.980618,38.327316 44.976463,33.643379 
z"/>
<path fill="#A5F094" opacity="1.000000" stroke="none" 
	d="
M11.274292,34.058258 
	C11.231008,43.104145 11.187723,52.150032 10.881842,61.645199 
	C10.619246,62.094479 10.176823,62.082008 10.176823,62.082008 
	C10.125947,61.898010 10.075070,61.714016 10.006803,60.791122 
	C10.030094,51.046448 10.070779,42.040680 10.111464,33.034912 
	C10.111464,33.034912 10.511186,32.967121 10.805449,33.220615 
	C11.157906,33.668827 11.216099,33.863544 11.274292,34.058258 
z"/>
<path fill="#32A01B" opacity="1.000000" stroke="none" 
	d="
M9.830799,33.341743 
	C10.070779,42.040680 10.030094,51.046448 9.928689,60.515633 
	C9.762023,51.868893 9.656078,42.758732 9.830799,33.341743 
z"/>
<path fill="#F1FFE9" opacity="1.000000" stroke="none" 
	d="
M11.680098,34.044235 
	C11.216099,33.863544 11.157906,33.668827 11.004904,33.184410 
	C12.330586,32.587109 13.751077,32.279507 15.805119,31.953362 
	C16.609182,31.912889 16.779696,31.890957 16.950209,31.869022 
	C16.964586,32.333591 16.978964,32.798164 17.000702,33.610424 
	C15.367344,33.982147 13.726623,34.006176 11.680098,34.044235 
z"/>
<path fill="#F3FFEF" opacity="1.000000" stroke="none" 
	d="
M61.095306,12.481835 
	C62.074623,12.451887 63.159267,12.731907 64.594276,13.072707 
	C65.584061,13.892507 66.223480,14.651524 66.835037,15.711157 
	C64.938324,14.938449 63.069481,13.865126 61.095306,12.481835 
z"/>
<path fill="#E5FFDD" opacity="1.000000" stroke="none" 
	d="
M31.772024,45.442924 
	C31.863710,42.478745 31.997128,39.832344 32.363129,36.817802 
	C32.736485,39.604576 32.877247,42.759487 33.021236,46.371864 
	C32.863022,46.873016 32.701584,46.916710 32.291771,46.983139 
	C32.043396,47.005882 32.119843,46.990009 32.119843,46.990009 
	C32.017811,46.580238 31.915783,46.170471 31.772024,45.442924 
z"/>
<path fill="#EEFFE7" opacity="1.000000" stroke="none" 
	d="
M14.079075,65.935997 
	C14.872374,66.470909 15.665673,67.005814 16.281021,67.748947 
	C15.132775,67.522072 14.162479,67.086967 13.338850,66.322617 
	C13.683370,65.974243 13.881223,65.955124 14.079075,65.935997 
z"/>
<path fill="#F1FFE9" opacity="1.000000" stroke="none" 
	d="
M13.994243,65.612961 
	C13.881223,65.955124 13.683370,65.974243 13.188219,66.015976 
	C12.263743,65.249619 11.636566,64.460640 10.982763,63.348331 
	C11.940562,63.779976 12.924987,64.534950 13.994243,65.612961 
z"/>
<path fill="#4FAF39" opacity="1.000000" stroke="none" 
	d="
M16.964224,31.446815 
	C16.779696,31.890957 16.609182,31.912889 16.186489,31.880047 
	C16.073227,30.079908 16.212145,28.334543 16.552891,26.278786 
	C16.829227,27.653797 16.903734,29.339203 16.964224,31.446815 
z"/>
<path fill="#30A313" opacity="1.000000" stroke="none" 
	d="
M39.289726,22.366634 
	C40.712452,22.119970 42.431213,22.066126 44.573814,22.089407 
	C43.193695,22.297506 41.389729,22.428480 39.289726,22.366634 
z"/>
<path fill="#2CA70F" opacity="1.000000" stroke="none" 
	d="
M72.969955,78.643738 
	C72.572334,78.890839 72.102829,78.889305 71.284241,78.834869 
	C71.589455,78.653008 72.243759,78.524063 72.969955,78.643738 
z"/>
<path fill="#2EA411" opacity="1.000000" stroke="none" 
	d="
M30.648170,41.236088 
	C30.860176,41.759937 30.897081,42.501881 30.896790,43.613834 
	C30.730753,43.140621 30.601910,42.297405 30.648170,41.236088 
z"/>
<path fill="#3E9627" opacity="1.000000" stroke="none" 
	d="
M77.985420,76.337997 
	C77.993797,75.995903 78.408333,75.996353 78.615585,75.994843 
	C78.760635,76.607529 78.698425,77.221718 78.331207,77.941879 
	C78.009811,77.591927 77.993431,77.136009 77.985420,76.337997 
z"/>
<path fill="#F1FFE9" opacity="1.000000" stroke="none" 
	d="
M10.153860,62.331238 
	C10.176823,62.082008 10.619246,62.094479 10.839582,62.121910 
	C11.059919,62.149345 11.028482,62.596920 11.000921,62.819565 
	C10.692540,62.888298 10.411719,62.734383 10.153860,62.331238 
z"/>
<path fill="#5EAF4E" opacity="1.000000" stroke="none" 
	d="
M32.041428,46.966896 
	C31.964846,46.923180 31.890230,46.918457 31.967728,46.951870 
	C32.119843,46.990009 32.043396,47.005882 32.041428,46.966896 
z"/>
<path fill="#4FAF39" opacity="1.000000" stroke="none" 
	d="
M16.729797,22.056137 
	C16.967484,22.103270 16.946043,22.599627 16.843582,22.826260 
	C16.443651,22.925520 16.231249,22.713095 16.056667,22.190643 
	C16.009420,21.965666 16.492109,22.009005 16.729797,22.056137 
z"/>
<path fill="#2EA411" opacity="1.000000" stroke="none" 
	d="
M30.697241,14.121719 
	C30.789730,14.013202 30.855040,14.504645 30.819050,14.749648 
	C30.546677,14.774232 30.487240,14.519427 30.697241,14.121719 
z"/>
<path fill="#E7FFE3" opacity="1.000000" stroke="none" 
	d="
M11.390221,78.521729 
	C11.211608,78.694061 10.836119,78.630615 10.229778,78.391083 
	C10.397066,78.238640 10.795206,78.262291 11.390221,78.521729 
z"/>
<path fill="#2DA512" opacity="1.000000" stroke="none" 
	d="
M56.141708,25.086689 
	C56.352684,25.066343 56.643040,25.266005 56.886139,25.734528 
	C56.585110,25.813576 56.379173,25.581345 56.141708,25.086689 
z"/>
<path fill="#BBECAF" opacity="1.000000" stroke="none" 
	d="
M79.553497,70.841606 
	C79.256340,69.968918 79.170990,68.848061 79.208145,67.319489 
	C79.475540,68.138992 79.620415,69.366211 79.553497,70.841606 
z"/>
<path fill="#8CD87B" opacity="1.000000" stroke="none" 
	d="
M56.723148,58.043098 
	C56.480759,58.354713 55.948414,58.627445 55.126556,58.739807 
	C55.369095,58.387699 55.901142,58.195961 56.723148,58.043098 
z"/>
<path fill="#8CD87B" opacity="1.000000" stroke="none" 
	d="
M51.038734,58.421074 
	C50.949471,58.669422 50.725975,58.755054 50.162357,58.724411 
	C50.182991,58.491543 50.543751,58.374954 51.038734,58.421074 
z"/>
<path fill="#D1FFC8" opacity="1.000000" stroke="none" 
	d="
M67.000809,19.383659 
	C67.350235,20.283354 67.939438,21.656260 67.944984,23.031519 
	C68.004059,37.690388 67.970612,52.349632 67.923149,67.470978 
	C67.883720,67.933174 67.403053,67.977219 67.164886,67.935684 
	C66.941010,51.882084 66.955299,35.870026 67.000809,19.383659 
z"/>
<path fill="#F3FFF0" opacity="1.000000" stroke="none" 
	d="
M32.738850,33.057022 
	C32.195911,29.352701 32.137276,25.638880 32.353043,21.470730 
	C32.627445,21.016401 33.058990,20.998905 33.058990,20.998905 
	C33.594261,21.210541 34.129528,21.422174 34.850861,21.859772 
	C35.283504,25.453535 35.530094,28.821337 35.951485,32.567036 
	C35.158573,32.979126 34.190861,33.013321 32.738850,33.057022 
z"/>
<path fill="#E6FFDB" opacity="1.000000" stroke="none" 
	d="
M58.435791,54.661316 
	C58.162975,47.980282 58.104267,40.945728 58.134193,33.448204 
	C58.365181,40.092754 58.507538,47.200275 58.435791,54.661316 
z"/>
<path fill="#EBFFE4" opacity="1.000000" stroke="none" 
	d="
M34.005909,11.170237 
	C40.030762,11.123095 46.055618,11.075953 52.543098,11.110874 
	C46.979416,11.456498 40.953102,11.720057 34.463081,11.776420 
	C33.999367,11.569221 34.005909,11.170237 34.005909,11.170237 
z"/>
<path fill="#E5FFDD" opacity="1.000000" stroke="none" 
	d="
M33.696983,11.102633 
	C34.005909,11.170237 33.999367,11.569221 33.994370,11.768318 
	C33.666298,14.686528 33.343227,17.405642 33.039574,20.561831 
	C33.058990,20.998905 32.627445,21.016401 32.411560,21.021759 
	C32.154022,18.019766 32.112370,15.012416 32.098846,11.558693 
	C32.547340,11.086557 32.967697,11.060794 33.696983,11.102633 
z"/>
<path fill="#E6FFDB" opacity="1.000000" stroke="none" 
	d="
M58.428326,30.756607 
	C58.152901,29.954611 58.068802,28.889450 57.949009,27.424257 
	C58.148762,28.180630 58.384209,29.337038 58.428326,30.756607 
z"/>
<path fill="#EBFFE4" opacity="1.000000" stroke="none" 
	d="
M58.146385,11.373047 
	C58.301727,11.284576 58.611343,11.368121 59.020523,11.698837 
	C58.804535,11.899029 58.531391,11.765380 58.146385,11.373047 
z"/>
</svg>